<?xml version="1.0" encoding="UTF-8" standalone="no"?><!DOCTYPE svg PUBLIC "-//W3C//DTD SVG 1.1//EN" "http://www.w3.org/Graphics/SVG/1.1/DTD/svg11.dtd"><svg width="100%" height="100%" viewBox="0 0 623 428" version="1.1" xmlns="http://www.w3.org/2000/svg" xmlns:xlink="http://www.w3.org/1999/xlink" xml:space="preserve" xmlns:serif="http://www.serif.com/" style="fill-rule:evenodd;clip-rule:evenodd;stroke-linejoin:round;stroke-miterlimit:2;"><g id="Livello-1" serif:id="Livello 1"><g><g><g><g><g><path d="M53.212,27.268l-3.696,0l-0,-7.393l3.696,-0l0,7.393Zm62.842,14.786l3.696,0l0,3.697l-3.696,-0l-0,-3.697Zm-0,-3.696l-0,-3.697l-3.697,0l-0,-3.696l7.393,-0l0,7.393l-3.696,-0Zm-0,-0l-0,3.696l-7.394,0l0,-3.696l7.394,-0Zm-70.235,-25.876l0,3.696l-3.697,0l0,-3.696l3.697,-0Zm7.393,-0l-7.393,-0l0,-3.697l-3.697,0l0,-7.393l7.394,0l-0,7.393l3.696,0l0,3.697Zm0,22.179l0,3.697l-7.393,-0l0,-3.697l7.393,0Zm-11.09,-3.696l0,-7.394l3.697,0l0,7.394l-3.697,-0Zm-25.875,3.696l-3.697,0l0,-3.696l3.697,-0l-0,3.696Zm7.393,25.876l-0,11.09l-3.697,-0l0,-7.393l-3.696,-0l-0,-3.697l-3.697,-0l0,-3.697l7.393,0l0,3.697l3.697,-0Zm3.696,-3.697l0,3.697l-3.696,-0l-0,-3.697l3.696,0Zm11.09,3.697l-0,3.697l-3.697,-0l0,-3.697l3.697,-0Zm3.696,-0l18.483,-0l0,3.697l-11.089,-0l-0,3.696l-3.697,0l0,22.179l-3.697,0l0,-14.786l-3.696,0l-0,-3.696l-7.393,-0l-0,3.696l7.393,0l-0,3.697l-14.786,-0l-0,-3.697l3.696,0l0,-11.089l3.697,-0l-0,3.696l11.089,0l0,-7.393Zm22.18,36.965l3.696,0l0,3.697l-3.696,0l-0,-3.697Zm14.786,-7.393l-0,3.697l3.697,-0l-0,11.09l-3.697,-0l-0,-7.394l-3.697,0l0,-7.393l3.697,0Zm11.09,7.393l-0,11.09l-3.697,0l0,-11.09l3.697,0Zm25.876,-3.696l-0,-3.697l3.696,0l0,3.697l-3.696,-0Zm-11.09,-59.145l-0,-3.696l3.696,-0l0,3.696l-3.696,0Zm-33.269,-29.572l-7.393,-0l-0,3.696l-7.393,0l-0,-3.696l3.696,-0l0,-3.697l11.09,0l-0,3.697Zm-55.448,29.572l3.696,0l0,3.697l-3.696,-0l-0,-3.697Zm3.696,3.697l7.393,-0l0,3.696l-3.696,0l-0,3.697l-7.393,-0l-0,-3.697l3.696,0l0,-3.696Zm7.393,-0l0,-3.697l3.697,0l-0,-3.696l11.089,-0l0,7.393l-3.696,-0l-0,-3.697l-3.697,0l0,3.697l3.697,-0l-0,3.696l-3.697,0l0,3.697l3.697,-0l-0,3.696l-3.697,0l0,3.697l3.697,-0l-0,-3.697l7.393,0l0,-3.696l7.393,-0l0,3.696l-3.696,0l-0,3.697l3.696,-0l0,-3.697l3.697,0l-0,-3.696l3.696,-0l0,7.393l3.697,-0l-0,3.696l-22.18,0l0,3.697l-3.696,-0l-0,-3.697l-11.09,0l0,-3.696l3.697,-0l-0,-3.697l-3.697,0l0,-3.696l3.697,-0l-0,-7.393l-3.697,-0Zm36.966,18.482l3.696,0l0,3.697l3.697,-0l-0,-3.697l-3.697,0l0,-3.696l3.697,-0l-0,-3.697l3.696,0l0,-3.696l3.697,-0l-0,7.393l-3.697,-0l0,11.09l3.697,-0l-0,11.089l3.697,0l-0,-3.696l3.696,-0l0,-7.393l3.697,-0l-0,7.393l3.696,-0l0,3.696l3.697,0l-0,-11.089l3.696,-0l0,3.696l3.697,0l-0,7.393l3.696,0l0,-7.393l-3.696,0l-0,-3.696l-3.697,-0l0,-3.697l-7.393,-0l0,3.697l-3.696,-0l-0,-3.697l-3.697,-0l0,-3.697l3.697,0l-0,-3.696l3.696,-0l0,3.696l11.09,0l-0,3.697l3.696,-0l0,3.697l3.697,-0l-0,-7.394l-3.697,0l0,-7.393l-3.696,0l-0,-3.696l7.393,-0l-0,3.696l7.393,0l0,7.393l-3.696,0l-0,11.09l-3.697,0l-0,11.09l7.393,-0l0,3.696l-3.696,0l-0,3.697l-3.697,-0l-0,-3.697l-3.697,0l0,7.393l-3.696,0l-0,3.697l3.696,-0l0,3.696l-7.393,0l0,-3.696l-7.393,-0l0,3.696l-3.696,0l-0,-3.696l-3.697,-0l0,-7.393l-3.696,-0l-0,-3.697l-3.697,0l-0,3.697l-3.697,-0l0,-3.697l-3.696,0l-0,7.393l-11.09,0l0,-3.696l3.697,-0l-0,-3.697l3.696,0l0,-3.696l3.697,-0l-0,-3.697l3.696,0l0,-3.696l-7.393,-0l0,7.393l-7.393,-0l0,-3.697l-3.696,0l-0,-7.393l7.393,0l-0,-11.09Zm-7.393,18.483l-0,3.697l-7.393,-0l-0,-3.697l7.393,0Zm-0,3.697l3.696,-0l0,3.696l-3.696,0l-0,-3.696Zm-0,3.696l-0,7.393l3.696,0l0,3.697l-3.696,-0l-0,3.696l3.696,0l0,7.394l-3.696,-0l-0,-3.697l-3.697,0l0,-3.697l-7.393,0l0,3.697l-3.697,0l0,-7.393l7.394,-0l-0,-7.393l3.696,-0l0,-3.697l3.697,0Zm-11.09,18.483l7.393,0l0,3.697l-3.696,-0l-0,3.696l-7.394,0l0,-3.696l3.697,-0l0,-3.697Zm7.393,3.697l3.697,-0l-0,3.696l-3.697,0l0,-3.696Zm7.393,-7.394l0,-3.696l3.697,-0l-0,3.696l-3.697,0Zm18.483,-11.089l3.697,-0l-0,3.696l-3.697,0l-0,-3.696Zm22.179,11.089l0,3.697l7.393,0l0,3.697l-3.696,-0l-0,3.696l-3.697,0l0,-3.696l-7.393,-0l0,-3.697l3.697,0l-0,-3.697l3.696,0Zm7.393,3.697l0,-3.697l3.697,0l-0,3.697l-3.697,0Zm3.697,0l3.697,0l-0,7.393l-3.697,0l-0,-7.393Zm3.697,0l-0,-3.697l3.696,0l0,3.697l-3.696,0Zm-0,-3.697l-3.697,0l-0,-3.696l3.697,-0l-0,3.696Zm-3.697,-3.696l-3.697,-0l0,-3.697l3.697,0l-0,3.697Zm-18.483,-40.662l0,-3.697l3.697,0l-0,3.697l-3.697,-0Zm3.697,-3.697l-0,-7.393l3.696,0l0,7.393l-3.696,0Zm-0,-7.393l-11.09,0l0,-3.696l-3.696,-0l-0,3.696l-7.394,0l0,3.697l-3.696,-0l-0,-7.393l3.696,-0l0,-7.393l-3.696,-0l-0,7.393l-7.393,-0l-0,3.696l-3.697,0l0,-3.696l-3.696,-0l-0,-3.697l-3.697,0l0,-3.696l11.09,-0l-0,3.696l3.696,0l0,-7.393l3.697,0l-0,-3.697l-3.697,0l0,-3.696l3.697,-0l-0,-3.697l3.696,0l0,-3.696l3.697,-0l-0,7.393l-3.697,-0l0,7.393l3.697,0l-0,-3.697l3.697,0l-0,3.697l3.696,0l0,3.697l-3.696,-0l-0,3.696l11.089,0l0,-3.696l3.697,-0l-0,3.696l7.393,0l-0,3.697l-7.393,-0l-0,3.696Zm-11.09,-14.786l0,-3.697l-3.696,0l-0,-11.089l3.696,-0l0,7.393l3.697,-0l-0,7.393l-3.697,0Zm0,-14.786l0,-7.393l-3.696,-0l-0,7.393l-3.697,-0l-0,-11.09l11.09,0l-0,11.09l-3.697,-0Zm-11.09,-0l-3.696,-0l-0,-7.393l3.696,-0l0,7.393Zm-3.696,-0l-0,3.696l-3.697,0l0,3.697l-3.696,-0l-0,-7.393l7.393,-0Zm-7.393,7.393l-0,3.696l-3.697,0l0,3.697l-3.696,0l-0,-11.09l-3.697,0l0,-3.696l7.393,-0l0,7.393l3.697,-0Zm-0,3.696l3.696,0l0,3.697l-3.696,0l-0,-3.697Zm7.393,22.18l-0,3.696l-3.697,0l0,3.697l-3.696,-0l-0,-7.393l7.393,-0Zm-14.786,-0l-3.697,-0l0,-3.697l3.697,0l-0,3.697Zm-18.483,-0l-0,-3.697l3.696,0l0,3.697l-3.696,-0Zm-11.09,-11.09l-7.393,0l0,-3.696l7.393,-0l0,3.696Zm40.662,33.269l3.697,0l-0,-3.696l-3.697,-0l0,3.696Zm22.18,22.179l11.089,0l0,-11.089l-11.089,-0l-0,11.089Zm-3.697,-33.269l-7.393,0l-0,-3.696l3.697,-0l-0,-3.697l3.696,0l0,7.393Zm0,-7.393l0,-3.696l3.697,-0l-0,3.696l-3.697,0Zm11.09,33.269l-0,3.697l-3.697,-0l0,-3.697l3.697,0Zm-25.876,22.18l-0,3.696l-3.697,0l0,-3.696l3.697,-0Zm-0,-0l-0,-3.697l3.696,0l0,3.697l-3.696,-0Zm-55.448,-55.449l-0,3.697l-3.697,-0l0,-3.697l3.697,0Zm-0,18.483l-0,3.697l-3.697,-0l0,-3.697l3.697,0Zm3.696,7.393l0,3.697l-3.696,-0l-0,-3.697l3.696,0Zm-7.393,-73.931l25.876,0l-0,25.876l-25.876,0l0,-25.876Zm21.995,21.995l-0,-18.113l-18.114,-0l0,18.113l18.114,-0Zm-3.512,-14.602l-0,11.09l-11.09,-0l0,-11.09l11.09,0Zm62.841,-7.393l25.876,0l0,25.876l-25.876,0l0,-25.876Zm21.995,21.995l-0,-18.113l-18.113,-0l-0,18.113l18.113,-0Zm-3.512,-14.602l-0,11.09l-11.09,-0l0,-11.09l11.09,0Zm-99.807,73.931l25.876,0l-0,25.876l-25.876,0l0,-25.876Zm21.995,21.995l-0,-18.113l-18.114,-0l0,18.113l18.114,-0Zm-3.512,-14.602l-0,11.09l-11.09,0l0,-11.09l11.09,0Z" style="fill:#ebfdff;"/></g></g></g></g><g><path d="M0.459,148.674l2.064,0l-0,-7.413l-2.471,1.189l-0,-1.275l2.458,-1.17l1.327,0l0,8.669l2.038,0l-0,1.111l-5.416,-0l0,-1.111Z" style="fill:#ebfdff;fill-rule:nonzero;"/><rect x="9.482" y="147.13" width="2.313" height="2.655" style="fill:#ebfdff;fill-rule:nonzero;"/><path d="M27.012,140.308l-0,1.347c-0.403,-0.258 -0.807,-0.453 -1.213,-0.585c-0.405,-0.131 -0.814,-0.197 -1.225,-0.197c-0.627,0 -1.122,0.146 -1.486,0.437c-0.363,0.291 -0.545,0.685 -0.545,1.18c-0,0.434 0.119,0.764 0.358,0.992c0.239,0.228 0.685,0.419 1.337,0.572l0.697,0.158c0.92,0.214 1.591,0.552 2.011,1.012c0.421,0.46 0.631,1.086 0.631,1.879c0,0.934 -0.289,1.646 -0.867,2.136c-0.579,0.491 -1.42,0.737 -2.524,0.737c-0.46,-0 -0.922,-0.05 -1.387,-0.148c-0.464,-0.099 -0.931,-0.247 -1.4,-0.444l0,-1.413c0.504,0.32 0.981,0.554 1.43,0.703c0.449,0.149 0.901,0.224 1.357,0.224c0.67,-0 1.192,-0.15 1.564,-0.45c0.372,-0.301 0.559,-0.72 0.559,-1.259c-0,-0.491 -0.128,-0.865 -0.385,-1.124c-0.256,-0.258 -0.702,-0.458 -1.337,-0.598l-0.71,-0.164c-0.911,-0.206 -1.573,-0.517 -1.985,-0.934c-0.412,-0.416 -0.618,-0.974 -0.618,-1.675c0,-0.877 0.295,-1.579 0.884,-2.107c0.59,-0.528 1.373,-0.792 2.35,-0.792c0.377,0 0.773,0.043 1.189,0.128c0.417,0.086 0.855,0.214 1.315,0.385Z" style="fill:#ebfdff;fill-rule:nonzero;"/><path d="M35.575,149.41c-0.325,0.189 -0.659,0.33 -1.003,0.424c-0.344,0.094 -0.695,0.142 -1.055,0.142c-1.139,-0 -2.029,-0.342 -2.671,-1.026c-0.642,-0.683 -0.963,-1.63 -0.963,-2.839c-0,-1.209 0.321,-2.156 0.963,-2.839c0.642,-0.684 1.532,-1.025 2.671,-1.025c0.355,-0 0.701,0.046 1.039,0.138c0.337,0.092 0.677,0.234 1.019,0.427l-0,1.268c-0.32,-0.285 -0.641,-0.49 -0.963,-0.618c-0.322,-0.127 -0.687,-0.19 -1.095,-0.19c-0.758,-0 -1.34,0.245 -1.748,0.736c-0.407,0.491 -0.611,1.192 -0.611,2.103c-0,0.907 0.205,1.607 0.614,2.1c0.41,0.493 0.992,0.739 1.745,0.739c0.421,0 0.798,-0.064 1.131,-0.194c0.333,-0.129 0.642,-0.329 0.927,-0.601l-0,1.255Z" style="fill:#ebfdff;fill-rule:nonzero;"/><path d="M42.586,146.085l-1.531,-0c-0.706,-0 -1.237,0.124 -1.594,0.371c-0.357,0.248 -0.536,0.617 -0.536,1.108c0,0.442 0.134,0.786 0.401,1.031c0.268,0.246 0.638,0.368 1.111,0.368c0.666,0 1.19,-0.231 1.571,-0.693c0.381,-0.462 0.574,-1.101 0.578,-1.916l0,-0.269Zm1.216,-0.5l-0,4.2l-1.216,-0l0,-1.091c-0.258,0.438 -0.584,0.761 -0.976,0.969c-0.392,0.208 -0.869,0.313 -1.429,0.313c-0.75,-0 -1.348,-0.212 -1.795,-0.635c-0.446,-0.422 -0.67,-0.989 -0.67,-1.699c0,-0.819 0.275,-1.441 0.825,-1.866c0.55,-0.425 1.357,-0.638 2.422,-0.638l1.623,0l0,-0.19c-0.004,-0.587 -0.153,-1.013 -0.447,-1.278c-0.293,-0.266 -0.762,-0.398 -1.406,-0.398c-0.412,-0 -0.828,0.059 -1.249,0.177c-0.421,0.119 -0.83,0.292 -1.229,0.52l0,-1.21c0.447,-0.171 0.875,-0.299 1.285,-0.384c0.41,-0.086 0.807,-0.128 1.193,-0.128c0.609,-0 1.129,0.089 1.561,0.269c0.431,0.18 0.781,0.449 1.048,0.808c0.166,0.22 0.285,0.49 0.355,0.812c0.07,0.322 0.105,0.805 0.105,1.449Z" style="fill:#ebfdff;fill-rule:nonzero;"/><path d="M51.99,145.224l-0,4.561l-1.216,-0l0,-4.561c0,-0.662 -0.116,-1.148 -0.348,-1.459c-0.232,-0.311 -0.596,-0.467 -1.091,-0.467c-0.565,0 -1,0.201 -1.305,0.602c-0.304,0.4 -0.457,0.976 -0.457,1.725l0,4.16l-1.209,-0l0,-7.361l1.209,0l0,1.104c0.215,-0.42 0.506,-0.739 0.875,-0.956c0.368,-0.217 0.804,-0.325 1.307,-0.325c0.75,-0 1.309,0.246 1.68,0.739c0.37,0.493 0.555,1.239 0.555,2.238Z" style="fill:#ebfdff;fill-rule:nonzero;"/><path d="M65.806,140.334l0,2.09l2.748,0l-0,0.94l-2.748,-0l0,3.996c0,0.543 0.103,0.922 0.309,1.137c0.206,0.214 0.565,0.322 1.078,0.322l1.361,-0l-0,0.966l-1.479,-0c-0.907,-0 -1.547,-0.182 -1.919,-0.546c-0.373,-0.363 -0.559,-0.99 -0.559,-1.879l0,-3.996l-1.965,-0l-0,-0.94l1.965,0l0,-2.09l1.209,0Z" style="fill:#ebfdff;fill-rule:nonzero;"/><path d="M76.919,145.224l-0,4.561l-1.216,-0l0,-4.561c0,-0.662 -0.116,-1.148 -0.348,-1.459c-0.232,-0.311 -0.596,-0.467 -1.091,-0.467c-0.565,0 -1,0.201 -1.305,0.602c-0.304,0.4 -0.457,0.976 -0.457,1.725l0,4.16l-1.209,-0l0,-10.226l1.209,-0l0,3.969c0.215,-0.42 0.506,-0.739 0.875,-0.956c0.368,-0.217 0.804,-0.325 1.307,-0.325c0.75,-0 1.309,0.246 1.68,0.739c0.37,0.493 0.555,1.239 0.555,2.238Z" style="fill:#ebfdff;fill-rule:nonzero;"/><path d="M85.613,145.5l0,0.591l-5.238,0l-0,0.04c-0.035,1.003 0.157,1.724 0.575,2.162c0.418,0.438 1.009,0.657 1.771,0.657c0.386,0 0.789,-0.061 1.21,-0.184c0.42,-0.122 0.869,-0.309 1.347,-0.558l-0,1.202c-0.46,0.189 -0.904,0.33 -1.331,0.424c-0.427,0.094 -0.84,0.142 -1.239,0.142c-1.143,-0 -2.037,-0.343 -2.681,-1.029c-0.644,-0.686 -0.966,-1.631 -0.966,-2.836c-0,-1.174 0.315,-2.112 0.946,-2.813c0.631,-0.701 1.472,-1.051 2.524,-1.051c0.937,-0 1.677,0.317 2.218,0.953c0.541,0.635 0.829,1.402 0.864,2.3Zm-1.209,-0.355c-0.053,-0.508 -0.238,-0.948 -0.556,-1.318c-0.317,-0.37 -0.774,-0.555 -1.37,-0.555c-0.583,-0 -1.062,0.193 -1.439,0.578c-0.377,0.386 -0.583,0.82 -0.618,1.302l3.983,-0.007Z" style="fill:#ebfdff;fill-rule:nonzero;"/><path d="M105.026,149.41c-0.324,0.189 -0.658,0.33 -1.002,0.424c-0.344,0.094 -0.696,0.142 -1.055,0.142c-1.139,-0 -2.03,-0.342 -2.672,-1.026c-0.642,-0.683 -0.963,-1.63 -0.963,-2.839c0,-1.209 0.321,-2.156 0.963,-2.839c0.642,-0.684 1.533,-1.025 2.672,-1.025c0.355,-0 0.701,0.046 1.038,0.138c0.338,0.092 0.677,0.234 1.019,0.427l-0,1.268c-0.32,-0.285 -0.641,-0.49 -0.963,-0.618c-0.322,-0.127 -0.687,-0.19 -1.094,-0.19c-0.758,-0 -1.341,0.245 -1.748,0.736c-0.408,0.491 -0.612,1.192 -0.612,2.103c0,0.907 0.205,1.607 0.615,2.1c0.409,0.493 0.991,0.739 1.745,0.739c0.42,0 0.797,-0.064 1.13,-0.194c0.333,-0.129 0.642,-0.329 0.927,-0.601l-0,1.255Z" style="fill:#ebfdff;fill-rule:nonzero;"/><path d="M110.342,143.272c-0.614,-0 -1.078,0.239 -1.394,0.716c-0.315,0.478 -0.473,1.185 -0.473,2.123c0,0.933 0.158,1.64 0.473,2.12c0.316,0.479 0.78,0.719 1.394,0.719c0.618,0 1.084,-0.24 1.4,-0.719c0.315,-0.48 0.473,-1.187 0.473,-2.12c-0,-0.938 -0.158,-1.645 -0.473,-2.123c-0.316,-0.477 -0.782,-0.716 -1.4,-0.716Zm-0,-1.025c1.021,-0 1.802,0.33 2.343,0.992c0.541,0.662 0.811,1.619 0.811,2.872c0,1.258 -0.269,2.216 -0.808,2.875c-0.539,0.66 -1.321,0.99 -2.346,0.99c-1.021,-0 -1.801,-0.33 -2.34,-0.99c-0.539,-0.659 -0.808,-1.617 -0.808,-2.875c-0,-1.253 0.269,-2.21 0.808,-2.872c0.539,-0.662 1.319,-0.992 2.34,-0.992Z" style="fill:#ebfdff;fill-rule:nonzero;"/><path d="M120.173,143.364l-0,-3.805l1.209,-0l0,10.226l-1.209,-0l-0,-0.927c-0.202,0.364 -0.47,0.641 -0.805,0.832c-0.335,0.19 -0.722,0.286 -1.16,0.286c-0.89,-0 -1.59,-0.345 -2.1,-1.036c-0.51,-0.69 -0.766,-1.642 -0.766,-2.855c0,-1.196 0.257,-2.135 0.769,-2.816c0.513,-0.682 1.212,-1.022 2.097,-1.022c0.442,-0 0.832,0.095 1.17,0.286c0.337,0.19 0.602,0.467 0.795,0.831Zm-3.556,2.747c0,0.938 0.149,1.645 0.447,2.123c0.298,0.477 0.738,0.716 1.321,0.716c0.583,0 1.027,-0.241 1.331,-0.723c0.305,-0.482 0.457,-1.187 0.457,-2.116c-0,-0.933 -0.152,-1.64 -0.457,-2.119c-0.304,-0.48 -0.748,-0.72 -1.331,-0.72c-0.583,-0 -1.023,0.239 -1.321,0.716c-0.298,0.478 -0.447,1.185 -0.447,2.123Z" style="fill:#ebfdff;fill-rule:nonzero;"/><path d="M130.135,145.5l0,0.591l-5.238,0l0,0.04c-0.035,1.003 0.157,1.724 0.575,2.162c0.419,0.438 1.009,0.657 1.772,0.657c0.385,0 0.788,-0.061 1.209,-0.184c0.421,-0.122 0.87,-0.309 1.347,-0.558l0,1.202c-0.46,0.189 -0.903,0.33 -1.331,0.424c-0.427,0.094 -0.84,0.142 -1.239,0.142c-1.143,-0 -2.037,-0.343 -2.681,-1.029c-0.644,-0.686 -0.966,-1.631 -0.966,-2.836c-0,-1.174 0.315,-2.112 0.946,-2.813c0.631,-0.701 1.472,-1.051 2.524,-1.051c0.938,-0 1.677,0.317 2.218,0.953c0.541,0.635 0.829,1.402 0.864,2.3Zm-1.209,-0.355c-0.052,-0.508 -0.238,-0.948 -0.555,-1.318c-0.318,-0.37 -0.775,-0.555 -1.371,-0.555c-0.582,-0 -1.062,0.193 -1.439,0.578c-0.377,0.386 -0.583,0.82 -0.618,1.302l3.983,-0.007Z" style="fill:#ebfdff;fill-rule:nonzero;"/></g></g><g><g><path d="M299.81,29.03c0.028,-0.021 0.054,-0.044 0.08,-0.068c-0.026,0.024 -0.053,0.047 -0.08,0.068m-48.231,22.949c-0.192,0.09 -0.438,0.132 -0.714,0.132c-1.102,-0 -2.672,-0.656 -3.106,-1.406l-23.578,-31.716c-0.027,-0.035 -0.049,-0.072 -0.067,-0.111c-0.052,-0.11 -0.09,-0.24 -0.12,-0.377c0.03,0.136 0.071,0.261 0.123,0.371c0.019,0.039 0.041,0.076 0.067,0.111l23.578,31.716c0.434,0.75 2.004,1.406 3.106,1.406c0.276,-0 0.522,-0.042 0.714,-0.132l48.011,-22.807c0.023,-0.011 0.043,-0.026 0.065,-0.038c-0.023,0.013 -0.043,0.032 -0.068,0.044l-48.011,22.807Zm-27.646,-34.123c-0.002,0.222 0.017,0.436 0.058,0.627c-0.041,-0.192 -0.06,-0.404 -0.058,-0.627m0.012,-0.267c-0.005,0.062 -0.009,0.123 -0.011,0.183c0.002,-0.061 0.005,-0.121 0.011,-0.183m0.044,-0.339c-0.011,0.062 -0.02,0.125 -0.027,0.187c0.008,-0.063 0.016,-0.125 0.027,-0.187m0.075,-0.33c-0.009,0.032 -0.018,0.062 -0.025,0.094c0.007,-0.032 0.016,-0.062 0.025,-0.094m0.095,-0.295c-0.006,0.015 -0.01,0.03 -0.016,0.045c0.006,-0.015 0.01,-0.03 0.016,-0.045m1.425,0.133l53.864,-15.268c0.036,-0.01 0.07,-0.023 0.103,-0.038c0.147,-0.07 0.314,-0.078 0.469,-0.022c0.155,0.055 0.279,0.166 0.349,0.313c0.019,0.041 0.042,0.08 0.07,0.116l18.583,24.602c0.182,0.457 0.153,1.331 -0.013,1.516l-47.983,22.794c-0.4,0.128 -1.88,-0.379 -2.105,-0.712c-0.019,-0.04 -0.041,-0.077 -0.067,-0.112l-23.559,-31.69c-0.138,-0.398 0.07,-1.315 0.289,-1.499m74.776,11.389l0.356,-0.766l-0.246,-0.036c0.01,-0.552 -0.09,-1.116 -0.275,-1.505c-0.019,-0.041 -0.043,-0.079 -0.07,-0.115l-18.593,-24.616c-0.469,-0.9 -1.561,-1.286 -2.493,-0.879l-53.898,15.277c-0.035,0.01 -0.069,0.023 -0.103,0.039c-0.317,0.15 -0.564,0.433 -0.744,0.777l-0.087,-0.012l-1.321,3.736l0,0.114c0,0.232 0.151,1.842 0.532,2.382l21.7,29.74c0.681,1.041 2.302,2.491 4.533,2.491c0.819,-0 1.722,-0.196 2.689,-0.68c3.996,-1.997 45.477,-22.88 45.896,-23.09l1.128,-0.718l0.707,-1.52c-0.006,0.009 -0.014,0.014 -0.02,0.022c0.134,-0.173 0.238,-0.389 0.309,-0.641" style="fill:#ebfdff;fill-rule:nonzero;"/><path d="M296.281,28.16l-19.46,-25.096l-47.426,13.824l23.751,31.501l43.135,-20.229Z" style="fill:#ebfdff;fill-rule:nonzero;"/><path d="M238.364,32.908c-0.496,0.184 -0.724,0.801 -0.51,1.379c0.214,0.579 0.79,0.899 1.285,0.715c0.496,-0.183 0.724,-0.801 0.51,-1.379c-0.214,-0.578 -0.789,-0.899 -1.285,-0.715" style="fill:#ebfdff;fill-rule:nonzero;"/><path d="M382.346,65.006l-18.498,-3.924l3.325,-37.394c7.107,-0.622 14.188,-0.124 17.537,0.197l1.609,0.175l1.076,0.957l-5.049,39.989Zm-22.283,4.131l0.225,-3.627l2.47,-1.951l11.291,2.395c-5.724,0.881 -11.216,2.371 -13.986,3.183m2.449,-22.942l-1.356,15.254l-0.646,0.51l0.862,-13.857l1.125,-1.875c0.006,-0.01 0.01,-0.022 0.015,-0.032m-13.422,-13.676c-0.137,-1.516 0.656,-2.889 2.426,-4.199c3.234,-2.393 7.993,-3.686 12.972,-4.34l-1.879,21.134c-0.115,-0.329 -0.35,-0.604 -0.665,-0.758c-3.428,-1.68 -12.421,-7.081 -12.854,-11.837m-22.249,7.352l-21.312,-4.136l36.693,-16.481l20.744,2.261c-4.941,0.764 -9.657,2.183 -13.026,4.676c-2.54,1.879 -3.713,4.089 -3.488,6.568c0.538,5.91 9.191,11.216 12.845,13.205l-32.456,-6.093Zm28.412,63.883l-52.754,-16.435l-0,-49.322l23.832,4.474l32.347,6.277l-3.425,55.006Zm34.424,-80.253l-1.914,-1.702c-0.001,-0.001 -0.003,-0.001 -0.003,-0.002c-0.007,-0.006 -0.015,-0.011 -0.022,-0.017c-0.053,-0.044 -0.108,-0.084 -0.166,-0.119c-0.022,-0.014 -0.046,-0.025 -0.07,-0.038c-0.047,-0.025 -0.094,-0.047 -0.144,-0.066c-0.026,-0.01 -0.052,-0.02 -0.078,-0.028c-0.059,-0.019 -0.119,-0.032 -0.179,-0.042c-0.015,-0.003 -0.028,-0.009 -0.043,-0.011c-0.192,-0.025 -1.161,-0.151 -2.686,-0.293l-7.195,-0.784l-35.025,-3.818c-0.235,-0.025 -0.472,0.012 -0.687,0.109l-40.833,18.341c-0.511,0.229 -0.817,0.753 -0.775,1.307c-0.001,0.021 -0.007,0.041 -0.007,0.063l-0,5.917l-7.912,-6.154c-0.816,0.411 -1.692,0.852 -2.619,1.319l10.105,7.86l-0,40.861l-42.899,-15.248l-17.433,-13.827c0.424,-0.612 1.052,-1.323 1.795,-1.653c1.362,-0.606 3.001,0.016 3.011,0.019c0.359,0.144 0.763,0.123 1.106,-0.056l0.746,-0.39c-0.259,-0.265 -0.472,-0.531 -0.631,-0.775l-1.091,-1.495c-0.972,-0.228 -2.63,-0.43 -4.217,0.276c-2.307,1.025 -3.515,3.566 -3.645,3.852c-0.252,0.554 -0.094,1.208 0.383,1.586l18.502,14.675c0.114,0.09 0.243,0.161 0.38,0.21l44.874,15.951c0.023,0.008 0.047,0.011 0.07,0.018c0.12,0.091 0.256,0.164 0.405,0.211l55.296,17.227c0.129,0.04 0.262,0.06 0.394,0.06c0.265,-0 0.528,-0.08 0.751,-0.234c0.335,-0.231 0.546,-0.603 0.571,-1.009l2.095,-33.646c3.28,-0.988 15.237,-4.385 23.536,-4.032c0.011,-0 0.021,-0.002 0.032,-0.002c0.008,0.001 0.016,0.003 0.025,0.003c0.041,-0 0.083,-0.006 0.124,-0.01c0.076,-0.006 0.149,-0.02 0.221,-0.039c0.02,-0.005 0.04,-0.008 0.059,-0.014c0.048,-0.016 0.093,-0.036 0.138,-0.056c0.022,-0.01 0.044,-0.019 0.065,-0.03c0.043,-0.022 0.082,-0.047 0.122,-0.073c0.012,-0.008 0.026,-0.014 0.038,-0.023c0.008,-0.006 0.014,-0.013 0.022,-0.019c0.054,-0.041 0.104,-0.086 0.152,-0.134c0.016,-0.016 0.032,-0.031 0.047,-0.047c0.043,-0.05 0.082,-0.103 0.118,-0.159c0.012,-0.018 0.026,-0.035 0.037,-0.055c0.034,-0.059 0.062,-0.122 0.087,-0.187c0.007,-0.018 0.017,-0.034 0.023,-0.052c0.028,-0.084 0.049,-0.17 0.061,-0.26l-0,-0.001l5.317,-42.109c0.054,-0.434 -0.108,-0.866 -0.434,-1.156" style="fill:#ebfdff;fill-rule:nonzero;"/><path d="M294.453,60.25l-1.333,-10.304l-5.385,3.72l-7.057,-10.217l-6.812,4.705l7.058,10.217l-5.385,3.72l9.165,4.893l10.617,5.903l0.894,-0.617l-1.762,-12.02Z" style="fill:#ebfdff;fill-rule:nonzero;"/><g><path d="M200.188,148.668l4.509,-0l-0,1.117l-5.961,-0l-0,-1.117c0.819,-0.863 1.535,-1.626 2.149,-2.287c0.613,-0.662 1.036,-1.129 1.268,-1.4c0.438,-0.535 0.734,-0.968 0.887,-1.298c0.154,-0.331 0.23,-0.67 0.23,-1.016c0,-0.547 -0.161,-0.977 -0.483,-1.288c-0.322,-0.311 -0.763,-0.467 -1.324,-0.467c-0.399,0 -0.817,0.073 -1.255,0.217c-0.438,0.145 -0.903,0.364 -1.394,0.658l0,-1.341c0.452,-0.215 0.895,-0.377 1.331,-0.487c0.436,-0.109 0.867,-0.164 1.292,-0.164c0.959,0 1.732,0.255 2.316,0.766c0.585,0.51 0.878,1.18 0.878,2.008c-0,0.42 -0.098,0.841 -0.293,1.262c-0.195,0.42 -0.511,0.885 -0.949,1.393c-0.246,0.285 -0.602,0.679 -1.068,1.183c-0.467,0.504 -1.178,1.257 -2.133,2.261Z" style="fill:#ebfdff;fill-rule:nonzero;"/><rect x="208.844" y="147.13" width="2.313" height="2.655" style="fill:#ebfdff;fill-rule:nonzero;"/><path d="M223.706,139.973l5.448,-0l0,1.117l-2.057,-0l0,7.578l2.057,-0l0,1.117l-5.448,-0l-0,-1.117l2.057,-0l-0,-7.578l-2.057,-0l-0,-1.117Z" style="fill:#ebfdff;fill-rule:nonzero;"/><path d="M237.843,145.224l0,4.561l-1.216,-0l0,-4.561c0,-0.662 -0.116,-1.148 -0.348,-1.459c-0.232,-0.311 -0.596,-0.467 -1.091,-0.467c-0.565,0 -1,0.201 -1.305,0.602c-0.304,0.4 -0.456,0.976 -0.456,1.725l-0,4.16l-1.21,-0l0,-7.361l1.21,0l-0,1.104c0.214,-0.42 0.506,-0.739 0.874,-0.956c0.368,-0.217 0.804,-0.325 1.308,-0.325c0.749,-0 1.309,0.246 1.679,0.739c0.37,0.493 0.555,1.239 0.555,2.238Z" style="fill:#ebfdff;fill-rule:nonzero;"/><path d="M245.882,142.68l-0,1.183c-0.347,-0.201 -0.695,-0.352 -1.045,-0.453c-0.351,-0.101 -0.708,-0.151 -1.072,-0.151c-0.547,-0 -0.956,0.088 -1.225,0.266c-0.27,0.177 -0.405,0.448 -0.405,0.812c0,0.328 0.101,0.574 0.303,0.736c0.201,0.162 0.703,0.32 1.505,0.473l0.486,0.092c0.6,0.114 1.055,0.342 1.364,0.683c0.309,0.342 0.463,0.787 0.463,1.335c0,0.727 -0.258,1.295 -0.775,1.705c-0.517,0.41 -1.236,0.615 -2.156,0.615c-0.364,-0 -0.745,-0.039 -1.144,-0.115c-0.398,-0.077 -0.83,-0.192 -1.294,-0.346l-0,-1.248c0.451,0.232 0.882,0.406 1.294,0.522c0.412,0.116 0.802,0.174 1.17,0.174c0.535,0 0.949,-0.108 1.242,-0.325c0.294,-0.217 0.441,-0.52 0.441,-0.91c-0,-0.561 -0.537,-0.949 -1.611,-1.163l-0.052,-0.014l-0.454,-0.092c-0.696,-0.135 -1.204,-0.364 -1.524,-0.686c-0.32,-0.322 -0.48,-0.762 -0.48,-1.318c-0,-0.706 0.239,-1.25 0.716,-1.633c0.478,-0.384 1.159,-0.575 2.044,-0.575c0.395,-0 0.774,0.036 1.137,0.108c0.364,0.072 0.721,0.181 1.072,0.325Z" style="fill:#ebfdff;fill-rule:nonzero;"/><path d="M255.399,145.5l-0,0.591l-5.238,0l-0,0.04c-0.035,1.003 0.156,1.724 0.575,2.162c0.418,0.438 1.008,0.657 1.771,0.657c0.385,0 0.789,-0.061 1.209,-0.184c0.421,-0.122 0.87,-0.309 1.347,-0.558l0,1.202c-0.46,0.189 -0.903,0.33 -1.33,0.424c-0.428,0.094 -0.841,0.142 -1.239,0.142c-1.144,-0 -2.038,-0.343 -2.682,-1.029c-0.644,-0.686 -0.966,-1.631 -0.966,-2.836c0,-1.174 0.316,-2.112 0.947,-2.813c0.63,-0.701 1.472,-1.051 2.523,-1.051c0.938,-0 1.677,0.317 2.218,0.953c0.541,0.635 0.83,1.402 0.865,2.3Zm-1.21,-0.355c-0.052,-0.508 -0.237,-0.948 -0.555,-1.318c-0.318,-0.37 -0.774,-0.555 -1.37,-0.555c-0.583,-0 -1.063,0.193 -1.44,0.578c-0.376,0.386 -0.582,0.82 -0.617,1.302l3.982,-0.007Z" style="fill:#ebfdff;fill-rule:nonzero;"/><path d="M264.18,143.942c-0.259,-0.201 -0.522,-0.348 -0.789,-0.44c-0.267,-0.092 -0.561,-0.138 -0.881,-0.138c-0.753,-0 -1.329,0.236 -1.728,0.71c-0.399,0.473 -0.598,1.156 -0.598,2.05l-0,3.661l-1.216,-0l-0,-7.361l1.216,0l-0,1.439c0.201,-0.521 0.511,-0.921 0.93,-1.199c0.418,-0.278 0.914,-0.417 1.488,-0.417c0.298,-0 0.576,0.037 0.835,0.111c0.259,0.075 0.506,0.191 0.743,0.349l-0,1.235Z" style="fill:#ebfdff;fill-rule:nonzero;"/><path d="M269.175,140.334l0,2.09l2.747,0l0,0.94l-2.747,-0l0,3.996c0,0.543 0.103,0.922 0.309,1.137c0.206,0.214 0.565,0.322 1.078,0.322l1.36,-0l0,0.966l-1.478,-0c-0.907,-0 -1.547,-0.182 -1.92,-0.546c-0.372,-0.363 -0.558,-0.99 -0.558,-1.879l-0,-3.996l-1.965,-0l-0,-0.94l1.965,0l-0,-2.09l1.209,0Z" style="fill:#ebfdff;fill-rule:nonzero;"/><path d="M288.168,147.419c-0.201,0.513 -0.457,1.187 -0.769,2.024c-0.433,1.157 -0.725,1.862 -0.874,2.116c-0.201,0.342 -0.453,0.599 -0.755,0.769c-0.303,0.171 -0.656,0.257 -1.059,0.257l-0.972,-0l-0,-1.012l0.716,-0c0.355,-0 0.633,-0.103 0.835,-0.309c0.201,-0.206 0.458,-0.739 0.769,-1.597l-2.846,-7.243l1.282,0l2.181,5.757l2.15,-5.757l1.281,0l-1.939,4.995Z" style="fill:#ebfdff;fill-rule:nonzero;"/><path d="M295.129,143.272c-0.613,-0 -1.078,0.239 -1.393,0.716c-0.316,0.478 -0.474,1.185 -0.474,2.123c0,0.933 0.158,1.64 0.474,2.12c0.315,0.479 0.78,0.719 1.393,0.719c0.618,0 1.084,-0.24 1.4,-0.719c0.315,-0.48 0.473,-1.187 0.473,-2.12c-0,-0.938 -0.158,-1.645 -0.473,-2.123c-0.316,-0.477 -0.782,-0.716 -1.4,-0.716Zm-0,-1.025c1.021,-0 1.802,0.33 2.343,0.992c0.541,0.662 0.812,1.619 0.812,2.872c-0,1.258 -0.27,2.216 -0.809,2.875c-0.539,0.66 -1.321,0.99 -2.346,0.99c-1.021,-0 -1.801,-0.33 -2.34,-0.99c-0.539,-0.659 -0.808,-1.617 -0.808,-2.875c-0,-1.253 0.269,-2.21 0.808,-2.872c0.539,-0.662 1.319,-0.992 2.34,-0.992Z" style="fill:#ebfdff;fill-rule:nonzero;"/><path d="M300.913,146.998l0,-4.561l1.209,0l0,4.561c0,0.662 0.118,1.148 0.352,1.459c0.234,0.311 0.597,0.467 1.088,0.467c0.569,-0 1.005,-0.2 1.307,-0.601c0.303,-0.401 0.454,-0.976 0.454,-1.726l-0,-4.16l1.216,0l-0,7.348l-1.216,-0l-0,-1.104c-0.215,0.425 -0.507,0.747 -0.877,0.966c-0.371,0.219 -0.803,0.329 -1.298,0.329c-0.754,-0 -1.315,-0.247 -1.683,-0.74c-0.368,-0.493 -0.552,-1.239 -0.552,-2.238Z" style="fill:#ebfdff;fill-rule:nonzero;"/><path d="M315.773,143.942c-0.258,-0.201 -0.521,-0.348 -0.788,-0.44c-0.268,-0.092 -0.561,-0.138 -0.881,-0.138c-0.754,-0 -1.33,0.236 -1.728,0.71c-0.399,0.473 -0.599,1.156 -0.599,2.05l0,3.661l-1.215,-0l-0,-7.361l1.215,0l0,1.439c0.202,-0.521 0.512,-0.921 0.93,-1.199c0.419,-0.278 0.915,-0.417 1.489,-0.417c0.298,-0 0.576,0.037 0.835,0.111c0.258,0.075 0.506,0.191 0.742,0.349l0,1.235Z" style="fill:#ebfdff;fill-rule:nonzero;"/><path d="M332.36,140.308l-0,1.347c-0.403,-0.258 -0.807,-0.453 -1.213,-0.585c-0.405,-0.131 -0.814,-0.197 -1.225,-0.197c-0.627,0 -1.122,0.146 -1.486,0.437c-0.363,0.291 -0.545,0.685 -0.545,1.18c-0,0.434 0.119,0.764 0.358,0.992c0.239,0.228 0.685,0.419 1.337,0.572l0.697,0.158c0.92,0.214 1.59,0.552 2.011,1.012c0.421,0.46 0.631,1.086 0.631,1.879c0,0.934 -0.289,1.646 -0.867,2.136c-0.579,0.491 -1.42,0.737 -2.524,0.737c-0.46,-0 -0.923,-0.05 -1.387,-0.148c-0.464,-0.099 -0.931,-0.247 -1.4,-0.444l0,-1.413c0.504,0.32 0.981,0.554 1.43,0.703c0.449,0.149 0.901,0.224 1.357,0.224c0.67,-0 1.192,-0.15 1.564,-0.45c0.372,-0.301 0.559,-0.72 0.559,-1.259c-0,-0.491 -0.129,-0.865 -0.385,-1.124c-0.256,-0.258 -0.702,-0.458 -1.337,-0.598l-0.71,-0.164c-0.911,-0.206 -1.573,-0.517 -1.985,-0.934c-0.412,-0.416 -0.618,-0.974 -0.618,-1.675c0,-0.877 0.295,-1.579 0.884,-2.107c0.59,-0.528 1.373,-0.792 2.35,-0.792c0.377,0 0.773,0.043 1.189,0.128c0.417,0.086 0.855,0.214 1.315,0.385Z" style="fill:#ebfdff;fill-rule:nonzero;"/><path d="M338.703,143.173c0.149,-0.315 0.338,-0.548 0.568,-0.7c0.23,-0.151 0.507,-0.226 0.831,-0.226c0.592,-0 1.009,0.229 1.252,0.686c0.244,0.458 0.365,1.32 0.365,2.587l0,4.265l-1.104,-0l0,-4.213c0,-1.038 -0.058,-1.683 -0.174,-1.935c-0.116,-0.252 -0.328,-0.378 -0.634,-0.378c-0.351,-0 -0.591,0.134 -0.72,0.404c-0.129,0.269 -0.194,0.906 -0.194,1.909l0,4.213l-1.104,-0l0,-4.213c0,-1.051 -0.062,-1.7 -0.187,-1.945c-0.125,-0.246 -0.35,-0.368 -0.674,-0.368c-0.32,-0 -0.542,0.134 -0.667,0.404c-0.125,0.269 -0.187,0.906 -0.187,1.909l-0,4.213l-1.098,-0l0,-7.361l1.098,0l-0,0.631c0.144,-0.263 0.325,-0.463 0.542,-0.601c0.217,-0.138 0.463,-0.207 0.739,-0.207c0.333,-0 0.61,0.076 0.832,0.23c0.221,0.153 0.393,0.385 0.516,0.696Z" style="fill:#ebfdff;fill-rule:nonzero;"/><path d="M348.555,146.085l-1.531,-0c-0.706,-0 -1.237,0.124 -1.594,0.371c-0.357,0.248 -0.536,0.617 -0.536,1.108c0,0.442 0.134,0.786 0.401,1.031c0.267,0.246 0.638,0.368 1.111,0.368c0.666,0 1.189,-0.231 1.571,-0.693c0.381,-0.462 0.573,-1.101 0.578,-1.916l-0,-0.269Zm1.216,-0.5l-0,4.2l-1.216,-0l-0,-1.091c-0.259,0.438 -0.584,0.761 -0.976,0.969c-0.392,0.208 -0.869,0.313 -1.43,0.313c-0.749,-0 -1.347,-0.212 -1.794,-0.635c-0.447,-0.422 -0.67,-0.989 -0.67,-1.699c-0,-0.819 0.275,-1.441 0.825,-1.866c0.55,-0.425 1.357,-0.638 2.422,-0.638l1.623,0l-0,-0.19c-0.005,-0.587 -0.153,-1.013 -0.447,-1.278c-0.294,-0.266 -0.762,-0.398 -1.406,-0.398c-0.412,-0 -0.829,0.059 -1.249,0.177c-0.421,0.119 -0.831,0.292 -1.229,0.52l-0,-1.21c0.447,-0.171 0.875,-0.299 1.285,-0.384c0.409,-0.086 0.807,-0.128 1.193,-0.128c0.609,-0 1.129,0.089 1.56,0.269c0.432,0.18 0.781,0.449 1.049,0.808c0.166,0.22 0.284,0.49 0.355,0.812c0.07,0.322 0.105,0.805 0.105,1.449Z" style="fill:#ebfdff;fill-rule:nonzero;"/><path d="M358.953,143.942c-0.259,-0.201 -0.522,-0.348 -0.789,-0.44c-0.267,-0.092 -0.561,-0.138 -0.881,-0.138c-0.753,-0 -1.329,0.236 -1.728,0.71c-0.399,0.473 -0.598,1.156 -0.598,2.05l-0,3.661l-1.216,-0l-0,-7.361l1.216,0l-0,1.439c0.201,-0.521 0.511,-0.921 0.93,-1.199c0.418,-0.278 0.914,-0.417 1.488,-0.417c0.298,-0 0.577,0.037 0.835,0.111c0.259,0.075 0.506,0.191 0.743,0.349l-0,1.235Z" style="fill:#ebfdff;fill-rule:nonzero;"/><path d="M363.948,140.334l0,2.09l2.747,0l0,0.94l-2.747,-0l0,3.996c0,0.543 0.103,0.922 0.309,1.137c0.206,0.214 0.565,0.322 1.078,0.322l1.36,-0l0,0.966l-1.478,-0c-0.907,-0 -1.547,-0.182 -1.92,-0.546c-0.372,-0.363 -0.558,-0.99 -0.558,-1.879l-0,-3.996l-1.965,-0l-0,-0.94l1.965,0l-0,-2.09l1.209,0Z" style="fill:#ebfdff;fill-rule:nonzero;"/><path d="M370.928,148.858l0,3.727l-1.216,-0l0,-10.161l1.216,0l0,0.94c0.202,-0.364 0.47,-0.641 0.805,-0.831c0.336,-0.191 0.722,-0.286 1.16,-0.286c0.89,-0 1.588,0.344 2.094,1.031c0.506,0.688 0.759,1.641 0.759,2.859c-0,1.197 -0.254,2.135 -0.763,2.817c-0.508,0.681 -1.204,1.022 -2.09,1.022c-0.446,-0 -0.838,-0.096 -1.173,-0.286c-0.335,-0.191 -0.599,-0.468 -0.792,-0.832Zm3.549,-2.747c0,-0.938 -0.148,-1.645 -0.443,-2.123c-0.296,-0.477 -0.735,-0.716 -1.318,-0.716c-0.587,-0 -1.032,0.24 -1.334,0.72c-0.302,0.479 -0.454,1.186 -0.454,2.119c0,0.929 0.152,1.634 0.454,2.116c0.302,0.482 0.747,0.723 1.334,0.723c0.583,0 1.022,-0.239 1.318,-0.716c0.295,-0.478 0.443,-1.185 0.443,-2.123Z" style="fill:#ebfdff;fill-rule:nonzero;"/><path d="M383.922,145.224l0,4.561l-1.216,-0l0,-4.561c0,-0.662 -0.116,-1.148 -0.348,-1.459c-0.232,-0.311 -0.596,-0.467 -1.091,-0.467c-0.565,0 -1,0.201 -1.305,0.602c-0.304,0.4 -0.456,0.976 -0.456,1.725l-0,4.16l-1.21,-0l0,-10.226l1.21,-0l-0,3.969c0.214,-0.42 0.506,-0.739 0.874,-0.956c0.368,-0.217 0.804,-0.325 1.308,-0.325c0.749,-0 1.309,0.246 1.679,0.739c0.37,0.493 0.555,1.239 0.555,2.238Z" style="fill:#ebfdff;fill-rule:nonzero;"/><path d="M389.614,143.272c-0.613,-0 -1.078,0.239 -1.393,0.716c-0.316,0.478 -0.473,1.185 -0.473,2.123c-0,0.933 0.157,1.64 0.473,2.12c0.315,0.479 0.78,0.719 1.393,0.719c0.618,0 1.085,-0.24 1.4,-0.719c0.316,-0.48 0.473,-1.187 0.473,-2.12c0,-0.938 -0.157,-1.645 -0.473,-2.123c-0.315,-0.477 -0.782,-0.716 -1.4,-0.716Zm0,-1.025c1.021,-0 1.802,0.33 2.343,0.992c0.541,0.662 0.812,1.619 0.812,2.872c-0,1.258 -0.27,2.216 -0.808,2.875c-0.539,0.66 -1.321,0.99 -2.347,0.99c-1.021,-0 -1.801,-0.33 -2.339,-0.99c-0.539,-0.659 -0.809,-1.617 -0.809,-2.875c0,-1.253 0.27,-2.21 0.809,-2.872c0.538,-0.662 1.318,-0.992 2.339,-0.992Z" style="fill:#ebfdff;fill-rule:nonzero;"/><path d="M401.024,145.224l0,4.561l-1.216,-0l0,-4.561c0,-0.662 -0.116,-1.148 -0.348,-1.459c-0.232,-0.311 -0.596,-0.467 -1.091,-0.467c-0.565,0 -1,0.201 -1.305,0.602c-0.304,0.4 -0.456,0.976 -0.456,1.725l-0,4.16l-1.21,-0l0,-7.361l1.21,0l-0,1.104c0.214,-0.42 0.506,-0.739 0.874,-0.956c0.368,-0.217 0.804,-0.325 1.308,-0.325c0.749,-0 1.309,0.246 1.679,0.739c0.37,0.493 0.555,1.239 0.555,2.238Z" style="fill:#ebfdff;fill-rule:nonzero;"/><path d="M410.029,145.5l-0,0.591l-5.238,0l-0,0.04c-0.035,1.003 0.156,1.724 0.575,2.162c0.418,0.438 1.009,0.657 1.771,0.657c0.385,0 0.789,-0.061 1.209,-0.184c0.421,-0.122 0.87,-0.309 1.347,-0.558l0,1.202c-0.46,0.189 -0.903,0.33 -1.33,0.424c-0.428,0.094 -0.841,0.142 -1.239,0.142c-1.144,-0 -2.038,-0.343 -2.682,-1.029c-0.644,-0.686 -0.966,-1.631 -0.966,-2.836c0,-1.174 0.316,-2.112 0.947,-2.813c0.631,-0.701 1.472,-1.051 2.523,-1.051c0.938,-0 1.677,0.317 2.218,0.953c0.542,0.635 0.83,1.402 0.865,2.3Zm-1.21,-0.355c-0.052,-0.508 -0.237,-0.948 -0.555,-1.318c-0.318,-0.37 -0.774,-0.555 -1.37,-0.555c-0.583,-0 -1.063,0.193 -1.44,0.578c-0.376,0.386 -0.582,0.82 -0.617,1.302l3.982,-0.007Z" style="fill:#ebfdff;fill-rule:nonzero;"/></g></g></g><g><path d="M74.048,414.676c7.774,-20.004 27.201,-34.191 49.953,-34.191c22.752,0 42.179,14.187 49.953,34.191l-99.906,0Zm103.583,-1.429c-4.155,-10.692 -11.34,-19.822 -20.78,-26.404c-6.149,-4.288 -12.985,-7.284 -20.188,-8.901c-3.895,1.637 -8.172,2.543 -12.662,2.543c-4.49,0 -8.767,-0.906 -12.662,-2.543c-7.203,1.617 -14.039,4.613 -20.188,8.901c-9.44,6.582 -16.625,15.712 -20.78,26.404l-2.089,5.374l111.438,0l-2.089,-5.374Z" style="fill:#ebfdff;fill-rule:nonzero;"/><path d="M124.001,311.117c-20.213,0 -36.657,16.444 -36.657,36.657c-0,20.212 16.444,36.656 36.657,36.656c20.213,0 36.657,-16.444 36.657,-36.656c-0,-20.213 -16.444,-36.657 -36.657,-36.657m-0,3.945c18.066,0 32.712,14.646 32.712,32.712c-0,18.066 -14.646,32.711 -32.712,32.711c-18.066,0 -32.711,-14.645 -32.711,-32.711c-0,-18.066 14.645,-32.712 32.711,-32.712" style="fill:#ebfdff;fill-rule:nonzero;"/><path d="M134.039,368.703c-0.105,-0.224 -2.771,-5.744 -10.038,-5.744c-7.354,0 -10.012,5.687 -10.038,5.744l-3.595,-1.626c0.149,-0.329 3.762,-8.063 13.633,-8.063c9.871,0 13.484,7.734 13.633,8.063l-3.595,1.626Z" style="fill:#ebfdff;fill-rule:nonzero;"/><path d="M162.162,349.181c0,8.477 -2.724,16.615 -7.528,23.333c4.006,3.787 9.008,6.533 14.576,7.794c-4.064,0.551 -7.976,1.579 -11.68,3.022c9.288,6.809 16.383,16.027 20.553,26.757l0.973,2.504l44.967,-0c-6.642,-17.093 -22.167,-29.743 -40.909,-32.283c13.962,-3.163 24.389,-15.639 24.389,-30.558c0,-17.31 -14.032,-31.342 -31.341,-31.342c-8.094,-0 -14.47,3.069 -20.031,8.105c4.431,6.456 6.031,14.263 6.031,22.668" style="fill:#ebfdff;fill-rule:nonzero;"/><path d="M153.475,386.614c0.848,0.591 1.677,1.204 2.486,1.837c-0.809,-0.633 -1.638,-1.246 -2.486,-1.837c-0.416,-0.29 -0.839,-0.569 -1.262,-0.847c0.423,0.278 0.846,0.557 1.262,0.847" style="fill:#ebfdff;fill-rule:nonzero;"/><path d="M94.08,386.944c-0.69,0.491 -1.376,0.988 -2.04,1.508c0.664,-0.52 1.35,-1.017 2.04,-1.508" style="fill:#ebfdff;fill-rule:nonzero;"/><path d="M69.919,410.087c3.963,-10.197 10.567,-19.027 19.184,-25.723c-4.413,-1.991 -9.155,-3.382 -14.126,-4.056c6.665,-1.51 12.521,-5.146 16.826,-10.154c-3.825,-6.226 -5.963,-13.466 -5.963,-20.973c-0,-7.413 1.026,-14.357 4.542,-20.323c-5.739,-6.412 -13.075,-10.45 -22.357,-10.45c-17.31,0 -31.342,14.032 -31.342,31.342c-0,14.919 10.428,27.394 24.39,30.558c-18.743,2.54 -34.267,15.19 -40.909,32.283l48.782,0l0.973,-2.504Z" style="fill:#ebfdff;fill-rule:nonzero;"/></g><g><g><path d="M572.42,85.967c-6.618,-0 -11.912,-5.294 -11.912,-11.912c-0,-6.617 5.294,-11.911 11.912,-11.911c6.618,-0 11.912,5.294 11.912,11.911c-0,6.618 -5.294,11.912 -11.912,11.912m-59.558,-0c-6.617,-0 -11.912,-5.294 -11.912,-11.912c-0,-6.617 5.295,-11.911 11.912,-11.911c6.618,-0 11.912,5.294 11.912,11.911c-0,6.618 -5.294,11.912 -11.912,11.912m86.955,-47.646l-114.352,-0c-1.323,-0 -2.382,1.058 -2.382,2.382l-0,66.705c-0,1.323 1.059,2.382 2.382,2.382l43.544,-0c1.059,-0 1.985,-0.662 2.25,-1.588l5.956,-18.132c1.72,-5.162 9,-5.162 10.72,-0l6.088,18.132c0.265,0.926 1.191,1.588 2.25,1.588l43.544,-0c1.323,-0 2.382,-1.059 2.382,-2.382l-0,-66.705c-0,-1.324 -1.059,-2.382 -2.382,-2.382" style="fill:#ebfdff;fill-rule:nonzero;"/><path d="M598.961,10.899l-0,-10.803l-7.202,-0l-0,10.803l-5.694,-0l4.141,8.035l4.681,9.475l0.946,-0l4.681,-9.475l4.141,-8.035l-5.694,-0Z" style="fill:#ebfdff;fill-rule:nonzero;"/></g><g><path d="M468.032,144.534c0.644,0.171 1.137,0.474 1.479,0.91c0.342,0.436 0.513,0.98 0.513,1.633c-0,0.903 -0.304,1.611 -0.91,2.126c-0.607,0.515 -1.447,0.773 -2.521,0.773c-0.451,-0 -0.911,-0.042 -1.38,-0.125c-0.469,-0.084 -0.929,-0.204 -1.38,-0.362l-0,-1.321c0.447,0.232 0.887,0.405 1.321,0.519c0.434,0.114 0.865,0.171 1.294,0.171c0.728,0 1.286,-0.164 1.676,-0.493c0.39,-0.328 0.585,-0.801 0.585,-1.419c0,-0.57 -0.195,-1.022 -0.585,-1.357c-0.39,-0.336 -0.918,-0.503 -1.584,-0.503l-1.012,-0l0,-1.091l1.012,-0c0.61,-0 1.085,-0.134 1.427,-0.401c0.341,-0.267 0.512,-0.64 0.512,-1.117c0,-0.504 -0.159,-0.891 -0.476,-1.16c-0.318,-0.27 -0.77,-0.405 -1.357,-0.405c-0.39,0 -0.793,0.044 -1.21,0.132c-0.416,0.088 -0.852,0.219 -1.308,0.394l0,-1.222c0.531,-0.14 1.003,-0.246 1.417,-0.316c0.414,-0.07 0.781,-0.105 1.101,-0.105c0.955,0 1.718,0.24 2.29,0.72c0.572,0.48 0.858,1.116 0.858,1.909c-0,0.539 -0.15,0.988 -0.45,1.347c-0.301,0.36 -0.738,0.614 -1.312,0.763Z" style="fill:#ebfdff;fill-rule:nonzero;"/><rect x="474.113" y="147.13" width="2.313" height="2.655" style="fill:#ebfdff;fill-rule:nonzero;"/><path d="M492.792,149.437c-0.338,0.179 -0.684,0.314 -1.039,0.404c-0.354,0.09 -0.731,0.135 -1.13,0.135c-1.257,-0 -2.233,-0.445 -2.928,-1.335c-0.694,-0.889 -1.042,-2.14 -1.042,-3.752c0,-1.604 0.35,-2.854 1.049,-3.75c0.699,-0.896 1.672,-1.344 2.921,-1.344c0.399,0 0.776,0.045 1.13,0.135c0.355,0.09 0.701,0.224 1.039,0.404l-0,1.361c-0.324,-0.268 -0.673,-0.471 -1.045,-0.612c-0.373,-0.14 -0.747,-0.21 -1.124,-0.21c-0.863,0 -1.509,0.333 -1.939,0.999c-0.429,0.666 -0.644,1.672 -0.644,3.017c0,1.34 0.215,2.344 0.644,3.01c0.43,0.666 1.076,0.999 1.939,0.999c0.386,-0 0.763,-0.07 1.134,-0.211c0.37,-0.14 0.715,-0.344 1.035,-0.611l-0,1.361Z" style="fill:#ebfdff;fill-rule:nonzero;"/><path d="M499.089,147.123c0,0.544 0.1,0.953 0.3,1.229c0.199,0.276 0.494,0.414 0.883,0.414l1.414,0l-0,1.019l-1.532,-0c-0.723,-0 -1.282,-0.231 -1.679,-0.693c-0.397,-0.463 -0.595,-1.119 -0.595,-1.969l0,-6.657l-1.939,-0l0,-0.947l3.148,0l0,7.604Z" style="fill:#ebfdff;fill-rule:nonzero;"/><path d="M505.065,142.45l3.096,0l-0,6.395l2.398,0l0,0.94l-6.007,-0l0,-0.94l2.399,0l0,-5.455l-1.886,0l0,-0.94Zm1.886,-2.859l1.21,0l-0,1.525l-1.21,0l0,-1.525Z" style="fill:#ebfdff;fill-rule:nonzero;"/><path d="M518.586,149.41c-0.325,0.189 -0.659,0.33 -1.003,0.424c-0.344,0.094 -0.695,0.142 -1.054,0.142c-1.14,-0 -2.03,-0.342 -2.672,-1.026c-0.642,-0.683 -0.963,-1.63 -0.963,-2.839c0,-1.209 0.321,-2.156 0.963,-2.839c0.642,-0.684 1.532,-1.025 2.672,-1.025c0.354,-0 0.701,0.046 1.038,0.138c0.337,0.092 0.677,0.234 1.019,0.427l-0,1.268c-0.32,-0.285 -0.641,-0.49 -0.963,-0.618c-0.322,-0.127 -0.687,-0.19 -1.094,-0.19c-0.758,-0 -1.341,0.245 -1.749,0.736c-0.407,0.491 -0.611,1.192 -0.611,2.103c0,0.907 0.205,1.607 0.615,2.1c0.409,0.493 0.991,0.739 1.745,0.739c0.42,0 0.797,-0.064 1.13,-0.194c0.333,-0.129 0.642,-0.329 0.927,-0.601l-0,1.255Z" style="fill:#ebfdff;fill-rule:nonzero;"/><path d="M521.788,139.559l1.248,-0l0,5.921l3.175,-3.056l1.472,0l-2.898,2.774l3.352,4.587l-1.479,-0l-2.721,-3.799l-0.901,0.848l0,2.951l-1.248,-0l-0,-10.226Z" style="fill:#ebfdff;fill-rule:nonzero;"/><path d="M540.655,140.334l0,2.09l2.747,0l0,0.94l-2.747,-0l0,3.996c0,0.543 0.103,0.922 0.309,1.137c0.206,0.214 0.565,0.322 1.078,0.322l1.36,-0l0,0.966l-1.478,-0c-0.907,-0 -1.547,-0.182 -1.92,-0.546c-0.372,-0.363 -0.558,-0.99 -0.558,-1.879l-0,-3.996l-1.965,-0l-0,-0.94l1.965,0l-0,-2.09l1.209,0Z" style="fill:#ebfdff;fill-rule:nonzero;"/><path d="M552.151,145.224l0,4.561l-1.215,-0l-0,-4.561c-0,-0.662 -0.117,-1.148 -0.349,-1.459c-0.232,-0.311 -0.596,-0.467 -1.091,-0.467c-0.565,0 -1,0.201 -1.304,0.602c-0.305,0.4 -0.457,0.976 -0.457,1.725l-0,4.16l-1.209,-0l-0,-10.226l1.209,-0l-0,3.969c0.215,-0.42 0.506,-0.739 0.874,-0.956c0.368,-0.217 0.804,-0.325 1.308,-0.325c0.749,-0 1.309,0.246 1.679,0.739c0.37,0.493 0.555,1.239 0.555,2.238Z" style="fill:#ebfdff;fill-rule:nonzero;"/><path d="M561.229,145.5l0,0.591l-5.238,0l0,0.04c-0.035,1.003 0.157,1.724 0.575,2.162c0.419,0.438 1.009,0.657 1.771,0.657c0.386,0 0.789,-0.061 1.21,-0.184c0.42,-0.122 0.869,-0.309 1.347,-0.558l-0,1.202c-0.46,0.189 -0.904,0.33 -1.331,0.424c-0.427,0.094 -0.84,0.142 -1.239,0.142c-1.143,-0 -2.037,-0.343 -2.681,-1.029c-0.644,-0.686 -0.966,-1.631 -0.966,-2.836c-0,-1.174 0.315,-2.112 0.946,-2.813c0.631,-0.701 1.472,-1.051 2.524,-1.051c0.937,-0 1.677,0.317 2.218,0.953c0.541,0.635 0.829,1.402 0.864,2.3Zm-1.209,-0.355c-0.053,-0.508 -0.238,-0.948 -0.556,-1.318c-0.317,-0.37 -0.774,-0.555 -1.37,-0.555c-0.583,-0 -1.062,0.193 -1.439,0.578c-0.377,0.386 -0.583,0.82 -0.618,1.302l3.983,-0.007Z" style="fill:#ebfdff;fill-rule:nonzero;"/><path d="M578.502,146.111c-0,-0.938 -0.149,-1.645 -0.447,-2.123c-0.298,-0.477 -0.738,-0.716 -1.321,-0.716c-0.587,-0 -1.032,0.24 -1.334,0.72c-0.303,0.479 -0.454,1.186 -0.454,2.119c0,0.929 0.151,1.634 0.454,2.116c0.302,0.482 0.747,0.723 1.334,0.723c0.583,0 1.023,-0.239 1.321,-0.716c0.298,-0.478 0.447,-1.185 0.447,-2.123Zm-3.556,-2.747c0.193,-0.359 0.459,-0.635 0.799,-0.828c0.339,-0.193 0.733,-0.289 1.179,-0.289c0.886,-0 1.582,0.34 2.09,1.022c0.509,0.681 0.763,1.62 0.763,2.816c-0,1.213 -0.255,2.165 -0.766,2.855c-0.51,0.691 -1.21,1.036 -2.1,1.036c-0.438,-0 -0.824,-0.096 -1.16,-0.286c-0.335,-0.191 -0.603,-0.468 -0.805,-0.832l0,0.927l-1.209,-0l-0,-10.226l1.209,-0l0,3.805Z" style="fill:#ebfdff;fill-rule:nonzero;"/><path d="M582.374,146.998l0,-4.561l1.21,0l-0,4.561c-0,0.662 0.117,1.148 0.351,1.459c0.235,0.311 0.597,0.467 1.088,0.467c0.57,-0 1.005,-0.2 1.308,-0.601c0.302,-0.401 0.453,-0.976 0.453,-1.726l0,-4.16l1.216,0l0,7.348l-1.216,-0l0,-1.104c-0.214,0.425 -0.507,0.747 -0.877,0.966c-0.37,0.219 -0.803,0.329 -1.298,0.329c-0.754,-0 -1.315,-0.247 -1.683,-0.74c-0.368,-0.493 -0.552,-1.239 -0.552,-2.238Z" style="fill:#ebfdff;fill-rule:nonzero;"/><path d="M593.752,140.334l0,2.09l2.748,0l-0,0.94l-2.748,-0l0,3.996c0,0.543 0.103,0.922 0.309,1.137c0.206,0.214 0.565,0.322 1.078,0.322l1.361,-0l-0,0.966l-1.479,-0c-0.907,-0 -1.547,-0.182 -1.919,-0.546c-0.373,-0.363 -0.559,-0.99 -0.559,-1.879l0,-3.996l-1.965,-0l-0,-0.94l1.965,0l0,-2.09l1.209,0Z" style="fill:#ebfdff;fill-rule:nonzero;"/><path d="M602.377,140.334l-0,2.09l2.747,0l-0,0.94l-2.747,-0l-0,3.996c-0,0.543 0.103,0.922 0.308,1.137c0.206,0.214 0.566,0.322 1.078,0.322l1.361,-0l-0,0.966l-1.479,-0c-0.907,-0 -1.547,-0.182 -1.919,-0.546c-0.373,-0.363 -0.559,-0.99 -0.559,-1.879l0,-3.996l-1.965,-0l0,-0.94l1.965,0l0,-2.09l1.21,0Z" style="fill:#ebfdff;fill-rule:nonzero;"/><path d="M611.014,143.272c-0.614,-0 -1.078,0.239 -1.393,0.716c-0.316,0.478 -0.474,1.185 -0.474,2.123c0,0.933 0.158,1.64 0.474,2.12c0.315,0.479 0.779,0.719 1.393,0.719c0.618,0 1.084,-0.24 1.4,-0.719c0.315,-0.48 0.473,-1.187 0.473,-2.12c-0,-0.938 -0.158,-1.645 -0.473,-2.123c-0.316,-0.477 -0.782,-0.716 -1.4,-0.716Zm-0,-1.025c1.021,-0 1.802,0.33 2.343,0.992c0.541,0.662 0.812,1.619 0.812,2.872c-0,1.258 -0.27,2.216 -0.809,2.875c-0.539,0.66 -1.321,0.99 -2.346,0.99c-1.021,-0 -1.801,-0.33 -2.34,-0.99c-0.539,-0.659 -0.808,-1.617 -0.808,-2.875c-0,-1.253 0.269,-2.21 0.808,-2.872c0.539,-0.662 1.319,-0.992 2.34,-0.992Z" style="fill:#ebfdff;fill-rule:nonzero;"/><path d="M622.497,145.224l0,4.561l-1.216,-0l0,-4.561c0,-0.662 -0.116,-1.148 -0.348,-1.459c-0.232,-0.311 -0.596,-0.467 -1.091,-0.467c-0.565,0 -1,0.201 -1.305,0.602c-0.304,0.4 -0.456,0.976 -0.456,1.725l-0,4.16l-1.21,-0l0,-7.361l1.21,0l-0,1.104c0.214,-0.42 0.506,-0.739 0.874,-0.956c0.368,-0.217 0.804,-0.325 1.307,-0.325c0.75,-0 1.309,0.246 1.68,0.739c0.37,0.493 0.555,1.239 0.555,2.238Z" style="fill:#ebfdff;fill-rule:nonzero;"/></g></g><g><path d="M120.77,226.208l-2.56,9.183l5.121,-0l-2.561,-9.183Zm-1.466,-2.139l2.945,-0l5.493,17.945l-2.512,-0l-1.323,-4.676l-6.286,0l-1.298,4.676l-2.512,-0l5.493,-17.945Z" style="fill:#ebfdff;fill-rule:nonzero;"/><path d="M142.467,233.672l-0,8.342l-2.224,-0l0,-8.342c0,-1.21 -0.212,-2.099 -0.637,-2.668c-0.425,-0.569 -1.09,-0.853 -1.995,-0.853c-1.034,-0 -1.829,0.366 -2.386,1.099c-0.557,0.734 -0.835,1.785 -0.835,3.155l-0,7.609l-2.212,-0l0,-13.462l2.212,0l-0,2.019c0.392,-0.769 0.925,-1.352 1.598,-1.749c0.673,-0.396 1.471,-0.595 2.392,-0.595c1.37,0 2.394,0.451 3.071,1.353c0.677,0.901 1.016,2.265 1.016,4.092Z" style="fill:#ebfdff;fill-rule:nonzero;"/><path d="M156.615,230.271l-0,-6.959l2.211,-0l0,18.702l-2.211,-0l-0,-1.695c-0.369,0.665 -0.859,1.172 -1.472,1.52c-0.613,0.349 -1.321,0.523 -2.122,0.523c-1.626,0 -2.906,-0.631 -3.84,-1.893c-0.933,-1.262 -1.4,-3.003 -1.4,-5.222c-0,-2.188 0.469,-3.905 1.406,-5.151c0.938,-1.246 2.216,-1.869 3.834,-1.869c0.809,0 1.523,0.175 2.14,0.523c0.617,0.349 1.101,0.856 1.454,1.521Zm-6.502,5.024c-0,1.715 0.272,3.009 0.817,3.882c0.545,0.873 1.35,1.31 2.416,1.31c1.065,0 1.877,-0.441 2.434,-1.322c0.556,-0.881 0.835,-2.171 0.835,-3.87c-0,-1.707 -0.279,-2.999 -0.835,-3.876c-0.557,-0.878 -1.369,-1.317 -2.434,-1.317c-1.066,0 -1.871,0.437 -2.416,1.311c-0.545,0.873 -0.817,2.167 -0.817,3.882Z" style="fill:#ebfdff;fill-rule:nonzero;"/><path d="M187.802,237.146c-0,0.993 0.182,1.743 0.547,2.247c0.364,0.505 0.903,0.758 1.616,0.758l2.585,-0l-0,1.863l-2.801,-0c-1.322,-0 -2.346,-0.423 -3.071,-1.268c-0.725,-0.846 -1.088,-2.046 -1.088,-3.6l0,-12.176l-3.545,0l-0,-1.731l5.757,0l-0,13.907Z" style="fill:#ebfdff;fill-rule:nonzero;"/><path d="M209.09,234.177l-0,1.082l-9.58,-0l0,0.072c-0.064,1.835 0.287,3.153 1.052,3.954c0.765,0.802 1.845,1.202 3.239,1.202c0.705,0 1.442,-0.112 2.212,-0.336c0.769,-0.225 1.59,-0.565 2.464,-1.022l-0,2.2c-0.842,0.344 -1.653,0.602 -2.434,0.775c-0.782,0.172 -1.537,0.258 -2.266,0.258c-2.091,0 -3.726,-0.627 -4.904,-1.881c-1.178,-1.254 -1.767,-2.983 -1.767,-5.186c0,-2.148 0.577,-3.862 1.731,-5.144c1.154,-1.282 2.692,-1.924 4.616,-1.924c1.714,0 3.066,0.581 4.056,1.743c0.99,1.162 1.517,2.564 1.581,4.207Zm-2.212,-0.649c-0.096,-0.929 -0.435,-1.733 -1.016,-2.41c-0.58,-0.677 -1.416,-1.016 -2.506,-1.016c-1.065,0 -1.943,0.353 -2.632,1.058c-0.689,0.705 -1.066,1.499 -1.13,2.38l7.284,-0.012Z" style="fill:#ebfdff;fill-rule:nonzero;"/><path d="M219.476,224.73l-0,3.822l5.024,0l-0,1.719l-5.024,-0l-0,7.307c-0,0.994 0.188,1.687 0.565,2.08c0.376,0.392 1.033,0.589 1.971,0.589l2.488,-0l-0,1.767l-2.704,-0c-1.659,-0 -2.829,-0.333 -3.51,-0.998c-0.681,-0.665 -1.022,-1.811 -1.022,-3.438l0,-7.307l-3.594,-0l0,-1.719l3.594,0l0,-3.822l2.212,-0Z" style="fill:#ebfdff;fill-rule:nonzero;"/><path d="M250.392,224.73l0,3.822l5.024,0l0,1.719l-5.024,-0l0,7.307c0,0.994 0.189,1.687 0.565,2.08c0.377,0.392 1.034,0.589 1.971,0.589l2.488,-0l0,1.767l-2.704,-0c-1.659,-0 -2.828,-0.333 -3.509,-0.998c-0.682,-0.665 -1.022,-1.811 -1.022,-3.438l-0,-7.307l-3.594,-0l0,-1.719l3.594,0l-0,-3.822l2.211,-0Z" style="fill:#ebfdff;fill-rule:nonzero;"/><path d="M272.113,233.672l-0,8.342l-2.224,-0l0,-8.342c0,-1.21 -0.212,-2.099 -0.637,-2.668c-0.424,-0.569 -1.09,-0.853 -1.995,-0.853c-1.034,-0 -1.829,0.366 -2.386,1.099c-0.557,0.734 -0.835,1.785 -0.835,3.155l-0,7.609l-2.212,-0l0,-18.702l2.212,-0l-0,7.259c0.392,-0.769 0.925,-1.352 1.598,-1.749c0.673,-0.396 1.471,-0.595 2.392,-0.595c1.37,0 2.394,0.451 3.071,1.353c0.677,0.901 1.016,2.265 1.016,4.092Z" style="fill:#ebfdff;fill-rule:nonzero;"/><path d="M289.41,234.177l0,1.082l-9.579,-0l-0,0.072c-0.064,1.835 0.286,3.153 1.051,3.954c0.766,0.802 1.845,1.202 3.24,1.202c0.705,0 1.442,-0.112 2.211,-0.336c0.769,-0.225 1.591,-0.565 2.464,-1.022l0,2.2c-0.841,0.344 -1.653,0.602 -2.434,0.775c-0.781,0.172 -1.536,0.258 -2.265,0.258c-2.092,0 -3.726,-0.627 -4.904,-1.881c-1.178,-1.254 -1.767,-2.983 -1.767,-5.186c-0,-2.148 0.577,-3.862 1.731,-5.144c1.153,-1.282 2.692,-1.924 4.615,-1.924c1.715,0 3.067,0.581 4.056,1.743c0.99,1.162 1.517,2.564 1.581,4.207Zm-2.212,-0.649c-0.096,-0.929 -0.434,-1.733 -1.015,-2.41c-0.581,-0.677 -1.416,-1.016 -2.506,-1.016c-1.066,0 -1.943,0.353 -2.632,1.058c-0.689,0.705 -1.066,1.499 -1.13,2.38l7.283,-0.012Z" style="fill:#ebfdff;fill-rule:nonzero;"/><path d="M316.615,229.922c0.273,-0.577 0.619,-1.003 1.04,-1.28c0.42,-0.276 0.927,-0.415 1.52,-0.415c1.082,0 1.845,0.419 2.29,1.257c0.445,0.837 0.667,2.413 0.667,4.729l-0,7.801l-2.019,-0l-0,-7.705c-0,-1.899 -0.106,-3.079 -0.319,-3.539c-0.212,-0.461 -0.599,-0.692 -1.16,-0.692c-0.641,0 -1.079,0.247 -1.316,0.74c-0.236,0.492 -0.354,1.656 -0.354,3.491l-0,7.705l-2.02,-0l0,-7.705c0,-1.923 -0.114,-3.109 -0.342,-3.557c-0.228,-0.449 -0.639,-0.674 -1.232,-0.674c-0.585,0 -0.992,0.247 -1.22,0.74c-0.228,0.492 -0.343,1.656 -0.343,3.491l0,7.705l-2.007,-0l0,-13.462l2.007,0l0,1.154c0.265,-0.481 0.595,-0.848 0.992,-1.1c0.397,-0.252 0.847,-0.379 1.352,-0.379c0.609,0 1.116,0.141 1.521,0.421c0.404,0.281 0.719,0.705 0.943,1.274Z" style="fill:#ebfdff;fill-rule:nonzero;"/><path d="M335.463,235.247l-2.801,-0c-1.29,-0 -2.261,0.226 -2.914,0.679c-0.653,0.453 -0.98,1.128 -0.98,2.025c0,0.809 0.245,1.438 0.733,1.887c0.489,0.449 1.166,0.673 2.032,0.673c1.218,0 2.175,-0.422 2.872,-1.268c0.697,-0.845 1.05,-2.013 1.058,-3.503l-0,-0.493Zm2.223,-0.914l0,7.681l-2.223,-0l-0,-1.996c-0.473,0.802 -1.068,1.393 -1.785,1.773c-0.717,0.381 -1.589,0.571 -2.614,0.571c-1.37,0 -2.464,-0.386 -3.281,-1.16c-0.818,-0.773 -1.226,-1.809 -1.226,-3.107c-0,-1.498 0.502,-2.636 1.508,-3.413c1.006,-0.777 2.482,-1.166 4.429,-1.166l2.969,-0l-0,-0.349c-0.008,-1.073 -0.281,-1.853 -0.817,-2.337c-0.537,-0.485 -1.395,-0.728 -2.573,-0.728c-0.753,0 -1.514,0.109 -2.283,0.325c-0.769,0.216 -1.519,0.533 -2.248,0.95l0,-2.212c0.817,-0.313 1.601,-0.547 2.35,-0.703c0.749,-0.156 1.476,-0.235 2.181,-0.235c1.114,0 2.066,0.165 2.855,0.493c0.789,0.329 1.428,0.822 1.917,1.479c0.305,0.4 0.521,0.895 0.649,1.484c0.128,0.589 0.192,1.472 0.192,2.65Z" style="fill:#ebfdff;fill-rule:nonzero;"/><path d="M351.738,235.175c0,-1.659 -0.27,-2.919 -0.811,-3.78c-0.541,-0.862 -1.328,-1.293 -2.362,-1.293c-1.081,0 -1.907,0.431 -2.476,1.293c-0.569,0.861 -0.853,2.121 -0.853,3.78c0,1.658 0.286,2.922 0.859,3.792c0.573,0.869 1.405,1.304 2.494,1.304c1.018,-0 1.797,-0.437 2.338,-1.31c0.541,-0.874 0.811,-2.136 0.811,-3.786Zm2.212,5.973c0,2.019 -0.477,3.55 -1.43,4.592c-0.954,1.041 -2.356,1.562 -4.207,1.562c-0.609,0 -1.246,-0.056 -1.911,-0.168c-0.665,-0.112 -1.33,-0.277 -1.995,-0.493l-0,-2.187c0.785,0.368 1.498,0.641 2.139,0.817c0.641,0.176 1.23,0.264 1.767,0.264c1.194,0 2.063,-0.324 2.608,-0.973c0.545,-0.649 0.817,-1.679 0.817,-3.089l0,-1.599c-0.352,0.753 -0.833,1.314 -1.442,1.683c-0.609,0.368 -1.35,0.553 -2.223,0.553c-1.571,-0 -2.825,-0.629 -3.762,-1.887c-0.938,-1.258 -1.407,-2.941 -1.407,-5.048c0,-2.116 0.469,-3.802 1.407,-5.06c0.937,-1.259 2.191,-1.888 3.762,-1.888c0.865,0 1.598,0.173 2.199,0.517c0.601,0.345 1.09,0.878 1.466,1.599l0,-1.743l2.212,0l0,12.548Z" style="fill:#ebfdff;fill-rule:nonzero;"/><path d="M361.692,228.6l5.661,0l0,11.695l4.387,-0l0,1.719l-10.986,-0l0,-1.719l4.387,-0l0,-9.976l-3.449,-0l-0,-1.719Zm3.449,-5.228l2.212,-0l0,2.788l-2.212,0l0,-2.788Z" style="fill:#ebfdff;fill-rule:nonzero;"/><path d="M387.114,241.329c-0.593,0.344 -1.204,0.602 -1.833,0.775c-0.629,0.172 -1.272,0.258 -1.929,0.258c-2.083,0 -3.712,-0.625 -4.886,-1.875c-1.174,-1.25 -1.76,-2.981 -1.76,-5.192c-0,-2.212 0.586,-3.942 1.76,-5.193c1.174,-1.25 2.803,-1.875 4.886,-1.875c0.649,0 1.282,0.085 1.899,0.253c0.617,0.168 1.238,0.429 1.863,0.781l0,2.32c-0.585,-0.521 -1.172,-0.898 -1.761,-1.13c-0.589,-0.232 -1.256,-0.349 -2.001,-0.349c-1.386,0 -2.452,0.449 -3.197,1.347c-0.745,0.897 -1.118,2.179 -1.118,3.846c0,1.658 0.375,2.939 1.124,3.84c0.749,0.901 1.813,1.352 3.191,1.352c0.769,0 1.459,-0.118 2.068,-0.354c0.608,-0.237 1.173,-0.603 1.694,-1.1l0,2.296Z" style="fill:#ebfdff;fill-rule:nonzero;"/><path d="M418.497,235.295c0,-1.715 -0.272,-3.009 -0.817,-3.882c-0.545,-0.874 -1.35,-1.311 -2.416,-1.311c-1.074,0 -1.887,0.439 -2.44,1.317c-0.553,0.877 -0.829,2.169 -0.829,3.876c-0,1.699 0.276,2.989 0.829,3.87c0.553,0.881 1.366,1.322 2.44,1.322c1.066,0 1.871,-0.437 2.416,-1.31c0.545,-0.873 0.817,-2.167 0.817,-3.882Zm-6.502,-5.024c0.352,-0.657 0.839,-1.162 1.46,-1.515c0.621,-0.352 1.34,-0.529 2.157,-0.529c1.619,0 2.893,0.623 3.823,1.869c0.929,1.246 1.394,2.963 1.394,5.151c-0,2.219 -0.467,3.96 -1.401,5.222c-0.933,1.262 -2.213,1.893 -3.84,1.893c-0.801,0 -1.508,-0.174 -2.121,-0.523c-0.613,-0.348 -1.104,-0.855 -1.472,-1.52l-0,1.695l-2.212,-0l0,-18.702l2.212,-0l-0,6.959Z" style="fill:#ebfdff;fill-rule:nonzero;"/><path d="M437.393,234.177l-0,1.082l-9.58,-0l0,0.072c-0.064,1.835 0.287,3.153 1.052,3.954c0.765,0.802 1.845,1.202 3.239,1.202c0.705,0 1.443,-0.112 2.212,-0.336c0.769,-0.225 1.59,-0.565 2.464,-1.022l-0,2.2c-0.842,0.344 -1.653,0.602 -2.434,0.775c-0.781,0.172 -1.537,0.258 -2.266,0.258c-2.091,0 -3.726,-0.627 -4.904,-1.881c-1.177,-1.254 -1.766,-2.983 -1.766,-5.186c-0,-2.148 0.577,-3.862 1.73,-5.144c1.154,-1.282 2.693,-1.924 4.616,-1.924c1.715,0 3.067,0.581 4.056,1.743c0.99,1.162 1.517,2.564 1.581,4.207Zm-2.212,-0.649c-0.096,-0.929 -0.434,-1.733 -1.015,-2.41c-0.581,-0.677 -1.417,-1.016 -2.506,-1.016c-1.066,0 -1.943,0.353 -2.633,1.058c-0.689,0.705 -1.065,1.499 -1.129,2.38l7.283,-0.012Z" style="fill:#ebfdff;fill-rule:nonzero;"/><path d="M450.712,235.175c-0,-1.659 -0.271,-2.919 -0.812,-3.78c-0.54,-0.862 -1.328,-1.293 -2.361,-1.293c-1.082,0 -1.907,0.431 -2.476,1.293c-0.569,0.861 -0.854,2.121 -0.854,3.78c0,1.658 0.287,2.922 0.86,3.792c0.573,0.869 1.404,1.304 2.494,1.304c1.017,-0 1.797,-0.437 2.337,-1.31c0.541,-0.874 0.812,-2.136 0.812,-3.786Zm2.211,5.973c0,2.019 -0.477,3.55 -1.43,4.592c-0.954,1.041 -2.356,1.562 -4.207,1.562c-0.609,0 -1.246,-0.056 -1.911,-0.168c-0.665,-0.112 -1.33,-0.277 -1.995,-0.493l-0,-2.187c0.785,0.368 1.498,0.641 2.139,0.817c0.641,0.176 1.23,0.264 1.767,0.264c1.194,0 2.064,-0.324 2.608,-0.973c0.545,-0.649 0.818,-1.679 0.818,-3.089l-0,-1.599c-0.353,0.753 -0.834,1.314 -1.443,1.683c-0.609,0.368 -1.35,0.553 -2.223,0.553c-1.571,-0 -2.825,-0.629 -3.762,-1.887c-0.938,-1.258 -1.406,-2.941 -1.406,-5.048c-0,-2.116 0.468,-3.802 1.406,-5.06c0.937,-1.259 2.191,-1.888 3.762,-1.888c0.865,0 1.598,0.173 2.199,0.517c0.601,0.345 1.09,0.878 1.467,1.599l-0,-1.743l2.211,0l0,12.548Z" style="fill:#ebfdff;fill-rule:nonzero;"/><path d="M460.665,228.6l5.661,0l0,11.695l4.387,-0l0,1.719l-10.985,-0l-0,-1.719l4.387,-0l-0,-9.976l-3.45,-0l0,-1.719Zm3.45,-5.228l2.211,-0l0,2.788l-2.211,0l-0,-2.788Z" style="fill:#ebfdff;fill-rule:nonzero;"/><path d="M485.967,233.672l0,8.342l-2.223,-0l-0,-8.342c-0,-1.21 -0.213,-2.099 -0.637,-2.668c-0.425,-0.569 -1.09,-0.853 -1.996,-0.853c-1.033,-0 -1.828,0.366 -2.385,1.099c-0.557,0.734 -0.836,1.785 -0.836,3.155l0,7.609l-2.211,-0l-0,-13.462l2.211,0l0,2.019c0.393,-0.769 0.926,-1.352 1.599,-1.749c0.673,-0.396 1.47,-0.595 2.392,-0.595c1.37,0 2.394,0.451 3.071,1.353c0.677,0.901 1.015,2.265 1.015,4.092Z" style="fill:#ebfdff;fill-rule:nonzero;"/><path d="M501.498,229.021l-0,2.163c-0.633,-0.368 -1.27,-0.645 -1.911,-0.829c-0.641,-0.184 -1.294,-0.277 -1.96,-0.277c-1.001,0 -1.748,0.163 -2.241,0.487c-0.493,0.325 -0.739,0.82 -0.739,1.485c-0,0.601 0.184,1.049 0.553,1.346c0.368,0.296 1.286,0.585 2.752,0.865l0.889,0.168c1.098,0.209 1.93,0.625 2.494,1.25c0.565,0.625 0.848,1.439 0.848,2.44c-0,1.33 -0.473,2.37 -1.418,3.119c-0.946,0.75 -2.26,1.124 -3.943,1.124c-0.665,0 -1.362,-0.07 -2.091,-0.21c-0.729,-0.14 -1.519,-0.351 -2.368,-0.631l0,-2.284c0.825,0.425 1.615,0.743 2.368,0.956c0.753,0.212 1.466,0.318 2.139,0.318c0.978,0 1.735,-0.198 2.272,-0.595c0.537,-0.396 0.805,-0.951 0.805,-1.664c0,-1.026 -0.981,-1.735 -2.945,-2.128l-0.096,-0.024l-0.829,-0.168c-1.274,-0.249 -2.204,-0.667 -2.788,-1.256c-0.585,-0.589 -0.878,-1.392 -0.878,-2.41c0,-1.29 0.437,-2.286 1.31,-2.987c0.874,-0.701 2.12,-1.052 3.738,-1.052c0.721,0 1.414,0.067 2.08,0.199c0.665,0.132 1.318,0.33 1.959,0.595Z" style="fill:#ebfdff;fill-rule:nonzero;"/></g><path d="M346.3,343.453l-33.387,-17.208l-0,23.661l-44.89,-0l-0,29.927l44.89,-0l-0,23.661l33.387,-17.208l39.373,-19.452l-0,-3.928l-39.373,-19.453Z" style="fill:#ebfdff;fill-rule:nonzero;"/><g><path d="M531.603,302.515c-34.382,-0 -62.354,27.972 -62.354,62.354c-0,34.383 27.972,62.355 62.354,62.355c34.382,-0 62.354,-27.972 62.354,-62.355c-0,-34.382 -27.972,-62.354 -62.354,-62.354m-0,6.711c30.731,-0 55.643,24.912 55.643,55.643c-0,30.731 -24.912,55.644 -55.643,55.644c-30.731,-0 -55.643,-24.913 -55.643,-55.644c-0,-30.731 24.912,-55.643 55.643,-55.643" style="fill:#ebfdff;fill-rule:nonzero;"/><path d="M596.52,386.41l-129.835,-0c-3.744,-0 -6.807,-3.063 -6.807,-6.806l0,-55.944c0,-3.744 3.063,-6.807 6.807,-6.807l129.835,-0c3.743,-0 6.806,3.063 6.806,6.807l0,55.944c0,3.743 -3.063,6.806 -6.806,6.806" style="fill:#ebfdff;fill-rule:nonzero;"/><path d="M531.603,413.984c13.076,0 23.677,-10.601 23.677,-23.677l-47.354,0c-0,13.076 10.601,23.677 23.677,23.677" style="fill:#ebfdff;fill-rule:nonzero;"/></g></g></svg>